<?xml version="1.0" encoding="UTF-8" standalone="no"?>
<svg
   version="1.0"
   width="600pt"
   height="450pt"
   viewBox="0 0 600 450"
   preserveAspectRatio="xMidYMid"
   id="svg6"
   xmlns="http://www.w3.org/2000/svg"
   xmlns:svg="http://www.w3.org/2000/svg">
  <defs
     id="defs6" />
  <metadata
     id="metadata1">
Created by potrace 1.16, written by Peter Selinger 2001-2019
</metadata>
  <g
     id="g7">
    <g
       transform="matrix(0.1,0,0,-0.1,-34.724409,475.51181)"
       fill="#000000"
       stroke="none"
       id="g6">
      <path
         d="m 3136,2732 c -43,-65 -119,-144 -200,-208 -27,-21 -37,-36 -33,-47 6,-15 9,-15 44,-1 104,44 212,142 266,243 32,58 30,81 -7,81 -19,0 -34,-15 -70,-68 z"
         id="path1" />
      <path
         d="m 2785,2666 c -18,-13 -18,-18 -1,-172 9,-88 19,-186 22,-219 10,-113 13,-124 44,-140 44,-23 109,-19 168,11 66,33 103,80 110,139 13,124 -91,184 -210,120 -57,-30 -51,-41 -68,139 -6,65 -13,123 -16,128 -8,12 -28,10 -49,-6 z m 255,-324 c 18,-15 21,-24 15,-51 -12,-57 -125,-120 -160,-91 -9,7 -15,29 -15,51 0,31 6,42 33,63 61,47 95,54 127,28 z"
         id="path2" />
      <path
         d="m 3489,2509 c -25,-35 -18,-62 18,-67 29,-4 71,54 56,77 -18,29 -49,25 -74,-10 z"
         id="path3" />
      <path
         d="m 2554,2306 c -40,-40 -47,-89 -14,-106 11,-6 20,-15 20,-20 0,-15 -61,-50 -86,-50 -12,0 -27,-7 -34,-15 -19,-23 14,-31 69,-16 55,14 91,38 111,75 14,26 14,28 -15,51 -28,24 -29,24 -10,44 10,12 24,21 32,21 7,0 13,11 13,25 0,38 -43,34 -86,-9 z"
         id="path4" />
      <path
         d="m 3478,2236 c -34,-57 -94,-92 -244,-142 -87,-30 -114,-43 -114,-56 0,-25 74,-24 174,2 133,35 209,83 247,155 23,43 23,44 5,64 -27,30 -38,26 -68,-23 z"
         id="path5" />
    </g>
  </g>
</svg>
